# xmcd
#
# Track frame offsets:
#	150
#	13897
#	24361
#	35705
#	47348
#	57804
#	69678
#	82179
#	94166
#	108670
#
# Disc length: 1595
#
# Revision: 3
# Processed by: cddbd v1.5.1PL0 Copyright (c) Steve Scherf et al.
# Submitted via: audiograbber 1.82.01
# Normalized: r1:TDELIM( - ),TSWAP
#
DISCID=8306390a
DTITLE=Various Artist - The First Ladies of Song - Legends of American Music
DYEAR=1997
DGENRE=
TTITLE0=Ella Fitzgerald - Basin Street Blues
TTITLE1=Ella Fitzgerald - How High the Moon
TTITLE2=Ella Fitzgerald - A Tisket, A Tasket
TTITLE3=Lena Horne - Old Devil Moon
TTITLE4=Lena Horne - The Lady Is a Tramp
TTITLE5=Lena Horne - Night and Day
TTITLE6=Lena Horne - Can't Help Lovin' Dat Man of Mine
TTITLE7=Pearl Bailey - Careless Love
TTITLE8=Pearl Bailey - C'est Magnifique
TTITLE9=Pearl Bailey - Bill Bailey, Won't You Please Come Home
EXTD=Ella Fitzgerald\nLena Horne\nPearl Bailey
EXTT0=Ella Fitzgerald
EXTT1=Ella Fitzgerald
EXTT2=
EXTT3=Lena Horne
EXTT4=Lena Horne
EXTT5=Lena Horne
EXTT6=Lena Horne
EXTT7=Pearl Bailey
EXTT8=Pearl Bailey
EXTT9=Pearl Bailey
PLAYORDER=
